<svg width="435" height="435" viewBox="0 0 435 435" fill="none" xmlns="http://www.w3.org/2000/svg">
<path d="M217.215 271.382C187.314 271.382 163.002 247.07 163.002 217.169C163.002 187.268 187.314 162.957 217.215 162.957C247.116 162.957 271.428 187.268 271.428 217.169C271.382 247.07 247.07 271.382 217.215 271.382ZM217.215 185.723C199.856 185.723 185.723 199.856 185.723 217.215C185.723 234.574 199.856 248.706 217.215 248.706C234.574 248.706 248.706 234.574 248.706 217.215C248.706 199.856 234.574 185.723 217.215 185.723Z" fill="url(#paint0_linear_90_57)"/>
<path d="M217.306 312.689C210.762 312.689 204.218 312.008 197.765 310.69C172.818 305.509 151.369 290.877 137.372 269.565C123.376 248.252 118.559 222.759 123.74 197.765C128.238 176.135 140.19 156.64 157.322 142.826C174.272 129.193 195.493 121.695 217.124 121.695C223.668 121.695 230.211 122.376 236.664 123.694C261.612 128.875 283.061 143.507 297.057 164.82C311.053 186.132 315.87 211.625 310.69 236.619C306.191 258.249 294.24 277.744 277.108 291.559C260.112 305.191 238.891 312.689 217.306 312.689ZM217.124 144.416C182.906 144.416 152.959 168.773 145.961 202.355C137.781 241.617 163.093 280.244 202.355 288.423C207.263 289.468 212.307 289.968 217.26 289.968C251.478 289.968 281.425 265.611 288.423 232.029C292.377 212.989 288.696 193.585 278.062 177.316C267.429 161.048 251.069 149.915 232.029 145.961C227.121 144.961 222.077 144.416 217.124 144.416Z" fill="url(#paint1_linear_90_57)"/>
<path d="M217.352 352.633C213.171 352.633 208.945 352.451 204.718 352.042C168.683 348.725 136.146 331.548 113.016 303.737C89.8855 275.926 79.0248 240.754 82.3421 204.764C85.4776 170.954 101.019 139.735 126.194 116.969C151.187 94.2929 183.451 81.8418 217.033 81.8418C221.214 81.8418 225.44 82.0235 229.666 82.4325C265.702 85.7498 298.239 102.927 321.369 130.738C344.499 158.549 355.36 193.721 352.043 229.757C348.907 263.566 333.366 294.785 308.191 317.552C283.198 340.136 250.933 352.633 217.352 352.633ZM217.033 104.518C158.549 104.518 110.38 148.506 104.972 206.854C99.2465 268.747 144.916 323.732 206.809 329.458C210.308 329.776 213.852 329.957 217.352 329.957C275.836 329.957 324.005 285.969 329.412 227.621C335.138 165.728 289.469 110.743 227.576 105.017C224.077 104.654 220.532 104.518 217.033 104.518Z" fill="url(#paint2_linear_90_57)"/>
<path d="M217.306 393.35C215.261 393.35 213.171 393.304 211.081 393.259C187.314 392.441 164.411 386.988 143.008 377.036C122.332 367.448 103.973 354.087 88.3406 337.365C72.7084 320.642 60.7116 301.374 52.5774 280.107C44.1251 258.068 40.3079 234.847 41.1258 211.08C42.7163 165.138 61.8022 122.286 94.9297 90.3851C127.921 58.5754 171.318 41.0347 217.079 41.0347C219.124 41.0347 221.214 41.0801 223.304 41.1255C247.071 41.9435 269.974 47.3966 291.377 57.3485C312.054 66.9368 330.412 80.2969 346.045 97.0197C361.677 113.743 373.674 133.01 381.808 154.277C390.26 176.317 394.077 199.538 393.259 223.304C391.669 269.246 372.583 312.099 339.455 343.999C306.464 375.854 263.067 393.35 217.306 393.35ZM217.079 63.7559C134.01 63.7559 66.7099 128.829 63.847 211.898C60.8933 296.466 127.33 367.629 211.853 370.583C213.671 370.629 215.488 370.674 217.261 370.674C300.329 370.674 367.63 305.601 370.493 222.532C373.446 137.963 307.01 66.8005 222.487 63.8467C220.714 63.8013 218.897 63.7559 217.079 63.7559Z" fill="url(#paint3_linear_90_57)"/>
<path d="M217.215 434.43C187.904 434.43 159.457 428.704 132.646 417.343C106.79 406.392 83.5686 390.759 63.6194 370.81C43.6702 350.861 27.9926 327.64 17.0864 301.783C5.77123 274.972 0 246.525 0 217.215C0 187.904 5.72579 159.457 17.0864 132.646C28.038 106.79 43.6702 83.5686 63.6194 63.6194C83.5686 43.6702 106.79 27.9926 132.646 17.0864C159.457 5.77123 187.904 0 217.215 0C246.525 0 274.972 5.72579 301.783 17.0864C327.64 28.038 350.861 43.6702 370.81 63.6194C390.759 83.5686 406.437 106.79 417.343 132.646C428.658 159.457 434.43 187.904 434.43 217.215C434.43 246.525 428.704 274.972 417.343 301.783C406.392 327.64 390.759 350.861 370.81 370.81C350.861 390.759 327.64 406.437 301.783 417.343C274.972 428.704 246.525 434.43 217.215 434.43ZM217.215 22.6757C109.971 22.6757 22.7212 109.925 22.7212 217.169C22.7212 324.413 109.971 411.663 217.215 411.663C324.459 411.663 411.708 324.413 411.708 217.169C411.708 109.971 324.459 22.6757 217.215 22.6757Z" fill="url(#paint4_linear_90_57)"/>
<mask id="mask0_90_57" style="mask-type:alpha" maskUnits="userSpaceOnUse" x="0" y="0" width="434" height="434">
<circle cx="217" cy="217" r="217" fill="#D9D9D9"/>
</mask>
<g mask="url(#mask0_90_57)">
<rect x="182" y="244" width="68.2139" height="128.131" rx="13.7769" fill="white" stroke="#323232" stroke-width="4" stroke-linecap="round"/>
<path d="M183.896 326.634V285.678H252.5C247.333 306.68 216.524 327.768 183.896 326.634Z" fill="#7E7E7E" fill-opacity="0.45"/>
<path d="M176 240.297C176 251.986 165.45 261.797 152 261.797C138.55 261.797 128 251.986 128 240.297C128 228.609 138.55 218.797 152 218.797C165.45 218.797 176 228.609 176 240.297Z" fill="white" stroke="#323232" stroke-width="4"/>
<path d="M259 240.297C259 251.986 269.55 261.797 283 261.797C296.45 261.797 307 251.986 307 240.297C307 228.609 296.45 218.797 283 218.797C269.55 218.797 259 228.609 259 240.297Z" fill="white" stroke="#323232" stroke-width="4"/>
<g clip-path="url(#clip0_90_57)">
<path d="M284 236.129C284 256.469 278.073 271.968 267.053 282.397C256.016 292.843 239.583 298.476 218.03 298.476C196.477 298.476 179.768 292.842 168.461 282.382C157.178 271.944 151 256.445 151 236.129C151 215.77 157.211 194.524 168.729 178.418C180.223 162.347 196.922 151.476 218.03 151.476C239.131 151.476 255.56 162.339 266.788 178.401C278.045 194.501 284 215.752 284 236.129Z" fill="white" stroke="#323232" stroke-width="4" stroke-linecap="round"/>
<path d="M217.842 234.476C215.975 242.863 215 247.246 215 255.973C217.501 257.528 219.892 257.916 224 257.872" stroke="#323232" stroke-width="4" stroke-linecap="round" stroke-linejoin="round"/>
<path d="M182.768 241.547C184.829 241.547 186.657 240.432 187.953 238.704C189.249 236.977 190.035 234.613 190.035 232.024C190.035 229.434 189.249 227.07 187.953 225.343C186.657 223.615 184.829 222.5 182.768 222.5C180.706 222.5 178.878 223.615 177.582 225.343C176.287 227.07 175.5 229.434 175.5 232.024C175.5 234.613 176.287 236.977 177.582 238.704C178.878 240.432 180.706 241.547 182.768 241.547Z" fill="#323232" stroke="#323232" stroke-linecap="round"/>
<circle cx="185.616" cy="229.809" r="2.5" fill="white" stroke="#323232"/>
<path d="M254.768 241.547C256.829 241.547 258.657 240.432 259.953 238.704C261.249 236.977 262.035 234.613 262.035 232.024C262.035 229.434 261.249 227.07 259.953 225.343C258.657 223.615 256.829 222.5 254.768 222.5C252.706 222.5 250.878 223.615 249.582 225.343C248.287 227.07 247.5 229.434 247.5 232.024C247.5 234.613 248.287 236.977 249.582 238.704C250.878 240.432 252.706 241.547 254.768 241.547Z" fill="#323232" stroke="#323232" stroke-linecap="round"/>
<circle cx="257.616" cy="229.809" r="2" fill="white"/>
<path d="M209 269.476C212 273.142 219.8 278.276 227 269.476" stroke="#323232" stroke-width="4" stroke-linecap="round" stroke-linejoin="round"/>
<g filter="url(#filter0_f_90_57)">
<ellipse cx="180.5" cy="266.5" rx="9.5" ry="5.5" fill="#FC9D80"/>
</g>
<g filter="url(#filter1_f_90_57)">
<ellipse cx="259.5" cy="266.5" rx="9.5" ry="5.5" fill="#FC9D80"/>
</g>
</g>
<path d="M137.5 178.797C135.86 156.724 142 145.297 160.5 140.797C160.5 140.797 215.5 86.2974 264 122.297C312.5 158.297 282.5 219.5 282.5 219.5C271 204 265.966 200.893 267 181.297C225.157 193.871 207.716 190.147 184.5 164.297C181.481 180.987 178 187 166 194C168.147 206.313 155.5 217 152 220.5C140.836 208.258 138.723 199.302 137.5 178.797Z" fill="#323232"/>
<path d="M182.637 336.566C198.781 364.54 237.874 362.35 250.064 336.821C250.396 336.127 251.144 335.922 251.623 336.139C278.582 348.357 296.284 361.353 308.373 378.321C320.476 395.308 327.102 416.482 331.512 445.356C331.604 445.958 331.132 446.5 330.538 446.5H100.471C99.8781 446.5 99.4054 445.956 99.5001 445.354C104.264 415.036 112.098 393.611 124.931 376.851C137.765 360.091 155.747 347.803 181.18 336.032C181.637 335.82 182.303 335.988 182.637 336.566Z" fill="white" stroke="#323232" stroke-width="4" stroke-linecap="round" stroke-linejoin="round"/>
<path d="M182.5 337C186.893 379.359 187.947 404.359 183 445.5" stroke="#323232" stroke-width="4"/>
<path d="M251.776 337.5C247.384 379.859 246.329 404.859 251.276 446" stroke="#323232" stroke-width="4"/>
<path fill-rule="evenodd" clip-rule="evenodd" d="M288.966 389.402C287.246 384.199 279.754 384.199 278.034 389.402L277.371 391.407C276.601 393.734 274.394 395.309 271.905 395.309H269.758C264.191 395.309 261.876 402.309 266.38 405.524L268.116 406.764C270.131 408.202 270.974 410.751 270.204 413.077L269.541 415.083C267.821 420.285 273.881 424.611 278.386 421.396L280.122 420.157C282.136 418.719 284.864 418.719 286.878 420.157L288.614 421.396C293.119 424.611 299.179 420.285 297.459 415.083L296.796 413.077C296.026 410.751 296.869 408.202 298.884 406.764L300.62 405.524C305.124 402.309 302.809 395.309 297.242 395.309H295.095C292.606 395.309 290.399 393.734 289.629 391.407L288.966 389.402ZM283.5 410.99C286.674 410.99 289.247 408.461 289.247 405.343C289.247 402.224 286.674 399.696 283.5 399.696C280.326 399.696 277.753 402.224 277.753 405.343C277.753 408.461 280.326 410.99 283.5 410.99Z" fill="#323232"/>
</g>
<defs>
<filter id="filter0_f_90_57" x="159" y="249" width="43" height="35" filterUnits="userSpaceOnUse" color-interpolation-filters="sRGB">
<feFlood flood-opacity="0" result="BackgroundImageFix"/>
<feBlend mode="normal" in="SourceGraphic" in2="BackgroundImageFix" result="shape"/>
<feGaussianBlur stdDeviation="6" result="effect1_foregroundBlur_90_57"/>
</filter>
<filter id="filter1_f_90_57" x="238" y="249" width="43" height="35" filterUnits="userSpaceOnUse" color-interpolation-filters="sRGB">
<feFlood flood-opacity="0" result="BackgroundImageFix"/>
<feBlend mode="normal" in="SourceGraphic" in2="BackgroundImageFix" result="shape"/>
<feGaussianBlur stdDeviation="6" result="effect1_foregroundBlur_90_57"/>
</filter>
<linearGradient id="paint0_linear_90_57" x1="217.215" y1="162.957" x2="217.215" y2="271.382" gradientUnits="userSpaceOnUse">
<stop stop-color="#921D7F"/>
<stop offset="1" stop-color="#FC9D80"/>
</linearGradient>
<linearGradient id="paint1_linear_90_57" x1="217.215" y1="121.695" x2="217.215" y2="312.689" gradientUnits="userSpaceOnUse">
<stop stop-color="#921D7F"/>
<stop offset="1" stop-color="#FC9D80"/>
</linearGradient>
<linearGradient id="paint2_linear_90_57" x1="217.192" y1="81.8418" x2="217.192" y2="352.633" gradientUnits="userSpaceOnUse">
<stop stop-color="#921D7F"/>
<stop offset="1" stop-color="#FC9D80"/>
</linearGradient>
<linearGradient id="paint3_linear_90_57" x1="217.193" y1="41.0347" x2="217.193" y2="393.35" gradientUnits="userSpaceOnUse">
<stop stop-color="#921D7F"/>
<stop offset="1" stop-color="#FC9D80"/>
</linearGradient>
<linearGradient id="paint4_linear_90_57" x1="217.215" y1="0" x2="217.215" y2="434.43" gradientUnits="userSpaceOnUse">
<stop stop-color="#921D7F"/>
<stop offset="1" stop-color="#FC9D80"/>
</linearGradient>
<clipPath id="clip0_90_57">
<rect width="137" height="190" fill="white" transform="translate(149 110.797)"/>
</clipPath>
</defs>
</svg>
