<svg width="310" height="293" viewBox="0 0 310 293" fill="none" xmlns="http://www.w3.org/2000/svg">
<path d="M279.061 0C266.689 0 256.007 19.9488 251.058 48.7884C245.478 33.8225 237.85 24.5905 229.437 24.5905C217.065 24.5905 206.382 44.5392 201.434 73.3788C195.853 58.413 188.225 49.1809 179.812 49.1809C167.44 49.1809 156.758 69.1297 151.809 97.9693C146.229 83.0034 138.601 73.7713 130.188 73.7713C117.816 73.7713 107.133 93.7201 102.184 122.56C96.6041 107.594 88.9761 98.3618 80.5632 98.3618C68.1911 98.3618 57.5085 118.311 52.5597 147.15C46.9795 132.184 39.3516 122.952 30.9386 122.952C13.8567 122.952 0 160.956 0 207.85C0 254.744 13.8567 292.747 30.9386 292.747C43.3106 292.747 53.9932 272.799 58.942 243.959C64.5222 258.925 72.1502 268.157 80.5632 268.157C92.9352 268.157 103.618 248.208 108.567 219.369C114.147 234.334 121.775 243.567 130.188 243.567C142.56 243.567 153.242 223.618 158.191 194.778C163.771 209.744 171.399 218.976 179.812 218.976C192.184 218.976 202.867 199.027 207.816 170.188C213.396 185.154 221.024 194.386 229.437 194.386C241.809 194.386 252.491 174.437 257.44 145.597C263.02 160.563 270.649 169.795 279.061 169.795C296.143 169.795 310 131.792 310 84.8976C310 38.0034 296.16 0 279.061 0Z" fill="#C5E3FF"/>
</svg>
