<svg width="142" height="142" viewBox="0 0 142 142" fill="none" xmlns="http://www.w3.org/2000/svg">
<path d="M142 71C142 75.5303 135.724 79.4294 134.87 83.6998C133.979 88.1187 138.287 94.0973 136.616 98.182C134.907 102.341 127.629 103.492 125.141 107.168C122.653 110.882 124.324 118.049 121.205 121.205C118.049 124.361 110.882 122.653 107.168 125.141C103.492 127.592 102.304 134.87 98.182 136.616C94.0973 138.287 88.1559 134.016 83.6998 134.87C79.3923 135.724 75.5303 142 71 142C66.4697 142 62.5706 135.724 58.3002 134.87C53.8813 133.979 47.9027 138.287 43.818 136.616C39.659 134.907 38.5078 127.629 34.8316 125.141C31.1182 122.653 23.9514 124.324 20.795 121.205C17.6386 118.049 19.3468 110.882 16.8588 107.168C14.408 103.492 7.12971 102.304 5.38441 98.182C3.71339 94.0973 7.98379 88.1559 7.12971 83.6998C6.27563 79.3923 0 75.5303 0 71C0 66.4697 6.27563 62.5706 7.12971 58.3002C8.02092 53.8813 3.71339 47.9027 5.38441 43.818C7.09257 39.659 14.3708 38.5078 16.8588 34.8316C19.3468 31.1182 17.6757 23.9514 20.795 20.795C23.9514 17.6386 31.1182 19.3468 34.8316 16.8588C38.5078 14.4079 39.6961 7.12971 43.818 5.38441C47.9027 3.71339 53.8441 7.98378 58.3002 7.1297C62.6077 6.27562 66.4697 0 71 0C75.5303 0 79.4294 6.27562 83.6998 7.1297C88.1187 8.02091 94.0973 3.71339 98.182 5.38441C102.341 7.09257 103.492 14.3708 107.168 16.8588C110.882 19.3468 118.049 17.6757 121.205 20.795C124.361 23.9514 122.653 31.1182 125.141 34.8316C127.592 38.5078 134.87 39.6961 136.616 43.818C138.287 47.9027 134.016 53.8441 134.87 58.3002C135.724 62.6077 142 66.4697 142 71Z" fill="white"/>
<path d="M31.901 34.901L27 30" stroke="black" stroke-width="3" stroke-miterlimit="10" stroke-linecap="round"/>
<path d="M42.9772 45.9772L38.0762 41.0762" stroke="black" stroke-width="3" stroke-miterlimit="10" stroke-linecap="round"/>
<path d="M31.901 41.0762L27 45.9772" stroke="black" stroke-width="3" stroke-miterlimit="10" stroke-linecap="round"/>
<path d="M42.9772 30L38.0762 34.901" stroke="black" stroke-width="3" stroke-miterlimit="10" stroke-linecap="round"/>
<path d="M92.901 107.901L88 103" stroke="black" stroke-width="3" stroke-miterlimit="10" stroke-linecap="round"/>
<path d="M103.977 118.977L99.0759 114.076" stroke="black" stroke-width="3" stroke-miterlimit="10" stroke-linecap="round"/>
<path d="M92.901 114.076L88 118.977" stroke="black" stroke-width="3" stroke-miterlimit="10" stroke-linecap="round"/>
<path d="M103.977 103L99.0759 107.901" stroke="black" stroke-width="3" stroke-miterlimit="10" stroke-linecap="round"/>
<g clip-path="url(#clip0_137_42)">
<path d="M98.6923 69.7153C98.6805 76.2527 96.0776 82.5468 91.4007 87.3471C86.7238 92.1474 80.3151 95.1028 73.4477 95.6261C66.5803 96.1494 59.7567 94.2023 54.3325 90.1717C48.9082 86.1411 45.2802 80.3219 44.1691 73.87C43.058 67.4181 44.5452 60.8056 48.3351 55.3462C52.1251 49.8868 57.9405 45.9799 64.6262 44.4016C71.3119 42.8233 78.3786 43.6891 84.4226 46.8271C90.4666 49.965 95.0455 55.1454 97.2499 61.3392C98.2079 64.0381 98.6952 66.8673 98.6923 69.7153Z" fill="#F93052"/>
<path d="M97.25 61.3392L62.2961 94.5071C59.0558 93.464 56.0501 91.8542 53.4346 89.7608C53.5478 89.63 53.661 89.5085 53.789 89.3871L91.362 53.7152C91.6579 53.4394 91.9886 53.1994 92.3466 53.0005C94.5059 55.4714 96.168 58.2979 97.25 61.3392Z" fill="#F15A24"/>
<path d="M86.3059 47.8761C86.2123 47.9788 86.1188 48.0769 86.0154 48.175L48.4228 83.8469C48.3194 83.945 48.216 84.0337 48.1077 84.1225C46.1303 81.289 44.7587 78.1146 44.0708 74.7794L76.445 44.0454C79.9648 44.6964 83.3154 45.998 86.3059 47.8761Z" fill="#F15A24"/>
<path d="M102.66 68.1973C101.544 75.4086 97.7315 81.9984 91.9188 86.7631C86.1061 91.5278 78.6812 94.1496 71 94.1496C63.3188 94.1496 55.8939 91.5278 50.0812 86.7631C44.2685 81.9984 40.4559 75.4086 39.3397 68.1973C39.1141 69.6669 39.0006 71.1501 39 72.6352C39 80.6885 42.3714 88.412 48.3726 94.1065C54.3737 99.801 62.5131 103 71 103C79.4869 103 87.6263 99.801 93.6274 94.1065C99.6286 88.412 103 80.6885 103 72.6352C102.999 71.1501 102.886 69.6669 102.66 68.1973Z" fill="#ED1C24"/>
<path d="M71 48.3431C75.3816 48.3431 79.6649 49.576 83.308 51.8859C86.9512 54.1958 89.7907 57.479 91.4675 61.3202C93.1443 65.1615 93.583 69.3883 92.7282 73.4661C91.8734 77.544 89.7634 81.2897 86.6652 84.2297C83.5669 87.1697 79.6194 89.1718 75.322 89.9829C71.0246 90.7941 66.5702 90.3778 62.5221 88.7867C58.474 87.1956 55.0141 84.5011 52.5798 81.0441C50.1455 77.5871 48.8462 73.5227 48.8462 69.365C48.8527 63.7915 51.1888 58.4481 55.3421 54.5071C59.4953 50.566 65.1264 48.3492 71 48.3431ZM71 39C64.671 39 58.4841 40.7809 53.2218 44.1174C47.9594 47.454 43.8579 52.1963 41.4359 57.7448C39.0139 63.2933 38.3802 69.3986 39.6149 75.2889C40.8496 81.1791 43.8973 86.5896 48.3726 90.8362C52.8479 95.0829 58.5497 97.9748 64.7571 99.1465C70.9645 100.318 77.3986 99.7168 83.2459 97.4185C89.0931 95.1203 94.0908 91.2283 97.607 86.2348C101.123 81.2413 103 75.3706 103 69.365C103 61.3117 99.6286 53.5882 93.6274 47.8937C87.6263 42.1992 79.4869 39 71 39Z" fill="#F7931E"/>
<path d="M71.2462 90.854C58.8056 90.854 47.7336 86.2339 40.6689 79.0537C42.7858 85.0101 46.7986 90.1963 52.1536 93.8967C57.5086 97.5971 63.9419 99.6292 70.5658 99.7128C77.1896 99.7964 83.6776 97.9272 89.1344 94.3632C94.5912 90.7992 98.7478 85.7161 101.031 79.8152C93.9613 86.5609 83.2388 90.854 71.2462 90.854Z" fill="#F15A24"/>
<path d="M75.8737 67.029V86.1823C75.8742 86.284 75.866 86.3855 75.8491 86.486C75.6374 88.0369 73.8454 89.2655 71.6842 89.2655C69.523 89.2655 67.7457 88.0416 67.5193 86.486C67.5024 86.3855 67.4941 86.284 67.4947 86.1823V67.029C67.4947 65.3286 69.3802 63.9365 71.6842 63.9365C72.7478 63.9225 73.7863 64.2428 74.638 64.8474C75.0064 65.0969 75.3093 65.4234 75.5236 65.8017C75.7378 66.1799 75.8576 66.5999 75.8737 67.029Z" fill="#ED1C24"/>
<path d="M71.4923 62.0538C73.9393 62.0538 75.9231 60.1714 75.9231 57.8494C75.9231 55.5274 73.9393 53.645 71.4923 53.645C69.0452 53.645 67.0615 55.5274 67.0615 57.8494C67.0615 60.1714 69.0452 62.0538 71.4923 62.0538Z" fill="#ED1C24"/>
<path d="M74.8894 66.0949V85.2482C74.8899 85.3499 74.8816 85.4515 74.8647 85.5519C74.653 87.1028 72.861 88.3314 70.6998 88.3314C68.5386 88.3314 66.7614 87.1075 66.5349 85.5519C66.518 85.4515 66.5098 85.3499 66.5103 85.2482V66.0949C66.5103 64.3945 68.3958 63.0024 70.6998 63.0024C71.7634 62.9884 72.802 63.3087 73.6537 63.9133C74.022 64.1629 74.325 64.4893 74.5392 64.8676C74.7535 65.2459 74.8733 65.6658 74.8894 66.0949Z" fill="white"/>
<path d="M70.5077 61.1197C72.9547 61.1197 74.9384 59.2373 74.9384 56.9153C74.9384 54.5933 72.9547 52.7109 70.5077 52.7109C68.0606 52.7109 66.0769 54.5933 66.0769 56.9153C66.0769 59.2373 68.0606 61.1197 70.5077 61.1197Z" fill="white"/>
<g style="mix-blend-mode:soft-light">
<path d="M71.6991 57.1772C72.5637 57.1772 73.2646 56.512 73.2646 55.6916C73.2646 54.8712 72.5637 54.2061 71.6991 54.2061C70.8345 54.2061 70.1335 54.8712 70.1335 55.6916C70.1335 56.512 70.8345 57.1772 71.6991 57.1772Z" fill="white"/>
</g>
<g style="mix-blend-mode:soft-light">
<path d="M69.8726 58.4104C70.3049 58.4104 70.6554 58.0778 70.6554 57.6676C70.6554 57.2574 70.3049 56.9248 69.8726 56.9248C69.4403 56.9248 69.0898 57.2574 69.0898 57.6676C69.0898 58.0778 69.4403 58.4104 69.8726 58.4104Z" fill="white"/>
</g>
</g>
<defs>
<clipPath id="clip0_137_42">
<rect width="64" height="64" fill="white" transform="translate(39 39)"/>
</clipPath>
</defs>
</svg>
