<svg width="1920" height="720" viewBox="0 0 1920 720" fill="none" xmlns="http://www.w3.org/2000/svg">
<path fill-rule="evenodd" clip-rule="evenodd" d="M1222.11 50.5118C1317.48 72.047 1407.52 92.3768 1504 92.3768C1759 92.3767 1920 19.4273 1920 19.4273V192.086H0.00012207V0C48.2548 0 93.1712 8.68872 143.871 18.4962C254.975 39.9884 393.853 66.8533 656.5 19.4274C894.28 -23.5084 1065.4 15.1287 1222.11 50.5118ZM1920 192.086V660.863C1920 660.863 1592 601.727 1225 660.863C967.505 702.355 931.533 698.373 795.872 683.358C738.179 676.972 662.457 668.591 544 660.863C147 634.964 0 720 0 720V192.086H1920Z" fill="#D8FFD8"/>
</svg>
