<svg width="435" height="435" viewBox="0 0 435 435" fill="none" xmlns="http://www.w3.org/2000/svg">
<path d="M217.215 271.382C187.314 271.382 163.002 247.07 163.002 217.169C163.002 187.268 187.314 162.957 217.215 162.957C247.116 162.957 271.428 187.268 271.428 217.169C271.382 247.07 247.07 271.382 217.215 271.382ZM217.215 185.723C199.856 185.723 185.723 199.856 185.723 217.215C185.723 234.574 199.856 248.706 217.215 248.706C234.574 248.706 248.706 234.574 248.706 217.215C248.706 199.856 234.574 185.723 217.215 185.723Z" fill="url(#paint0_linear_90_57)"/>
<path d="M217.306 312.689C210.762 312.689 204.218 312.008 197.765 310.69C172.818 305.509 151.369 290.877 137.372 269.565C123.376 248.252 118.559 222.759 123.74 197.765C128.238 176.135 140.19 156.64 157.322 142.826C174.272 129.193 195.493 121.695 217.124 121.695C223.668 121.695 230.211 122.376 236.664 123.694C261.612 128.875 283.061 143.507 297.057 164.82C311.053 186.132 315.87 211.625 310.69 236.619C306.191 258.249 294.24 277.744 277.108 291.559C260.112 305.191 238.891 312.689 217.306 312.689ZM217.124 144.416C182.906 144.416 152.959 168.773 145.961 202.355C137.781 241.617 163.093 280.244 202.355 288.423C207.263 289.468 212.307 289.968 217.26 289.968C251.478 289.968 281.425 265.611 288.423 232.029C292.377 212.989 288.696 193.585 278.062 177.316C267.429 161.048 251.069 149.915 232.029 145.961C227.121 144.961 222.077 144.416 217.124 144.416Z" fill="url(#paint1_linear_90_57)"/>
<path d="M217.352 352.633C213.171 352.633 208.945 352.451 204.718 352.042C168.683 348.725 136.146 331.548 113.016 303.737C89.8855 275.926 79.0248 240.754 82.3421 204.764C85.4776 170.954 101.019 139.735 126.194 116.969C151.187 94.2929 183.451 81.8418 217.033 81.8418C221.214 81.8418 225.44 82.0235 229.666 82.4325C265.702 85.7498 298.239 102.927 321.369 130.738C344.499 158.549 355.36 193.721 352.043 229.757C348.907 263.566 333.366 294.785 308.191 317.552C283.198 340.136 250.933 352.633 217.352 352.633ZM217.033 104.518C158.549 104.518 110.38 148.506 104.972 206.854C99.2465 268.747 144.916 323.732 206.809 329.458C210.308 329.776 213.852 329.957 217.352 329.957C275.836 329.957 324.005 285.969 329.412 227.621C335.138 165.728 289.469 110.743 227.576 105.017C224.077 104.654 220.532 104.518 217.033 104.518Z" fill="url(#paint2_linear_90_57)"/>
<path d="M217.306 393.35C215.261 393.35 213.171 393.304 211.081 393.259C187.314 392.441 164.411 386.988 143.008 377.036C122.332 367.448 103.973 354.087 88.3406 337.365C72.7084 320.642 60.7116 301.374 52.5774 280.107C44.1251 258.068 40.3079 234.847 41.1258 211.08C42.7163 165.138 61.8022 122.286 94.9297 90.3851C127.921 58.5754 171.318 41.0347 217.079 41.0347C219.124 41.0347 221.214 41.0801 223.304 41.1255C247.071 41.9435 269.974 47.3966 291.377 57.3485C312.054 66.9368 330.412 80.2969 346.045 97.0197C361.677 113.743 373.674 133.01 381.808 154.277C390.26 176.317 394.077 199.538 393.259 223.304C391.669 269.246 372.583 312.099 339.455 343.999C306.464 375.854 263.067 393.35 217.306 393.35ZM217.079 63.7559C134.01 63.7559 66.7099 128.829 63.847 211.898C60.8933 296.466 127.33 367.629 211.853 370.583C213.671 370.629 215.488 370.674 217.261 370.674C300.329 370.674 367.63 305.601 370.493 222.532C373.446 137.963 307.01 66.8005 222.487 63.8467C220.714 63.8013 218.897 63.7559 217.079 63.7559Z" fill="url(#paint3_linear_90_57)"/>
<path d="M217.215 434.43C187.904 434.43 159.457 428.704 132.646 417.343C106.79 406.392 83.5686 390.759 63.6194 370.81C43.6702 350.861 27.9926 327.64 17.0864 301.783C5.77123 274.972 0 246.525 0 217.215C0 187.904 5.72579 159.457 17.0864 132.646C28.038 106.79 43.6702 83.5686 63.6194 63.6194C83.5686 43.6702 106.79 27.9926 132.646 17.0864C159.457 5.77123 187.904 0 217.215 0C246.525 0 274.972 5.72579 301.783 17.0864C327.64 28.038 350.861 43.6702 370.81 63.6194C390.759 83.5686 406.437 106.79 417.343 132.646C428.658 159.457 434.43 187.904 434.43 217.215C434.43 246.525 428.704 274.972 417.343 301.783C406.392 327.64 390.759 350.861 370.81 370.81C350.861 390.759 327.64 406.437 301.783 417.343C274.972 428.704 246.525 434.43 217.215 434.43ZM217.215 22.6757C109.971 22.6757 22.7212 109.925 22.7212 217.169C22.7212 324.413 109.971 411.663 217.215 411.663C324.459 411.663 411.708 324.413 411.708 217.169C411.708 109.971 324.459 22.6757 217.215 22.6757Z" fill="url(#paint4_linear_90_57)"/>
<mask id="mask0_90_57" style="mask-type:alpha" maskUnits="userSpaceOnUse" x="0" y="0" width="434" height="434">
<circle cx="217" cy="217" r="217" fill="#D9D9D9"/>
</mask>
<g mask="url(#mask0_90_57)">
<path d="M344 281.438C344 358.481 272.327 377 219.757 377C167.188 377 88 358.481 88 281.438C88 204.395 131.084 98.5513 219.757 98.0021C308.431 97.4529 344 204.395 344 281.438Z" fill="#323232"/>
<rect x="182" y="237" width="68.2139" height="128.131" rx="13.7769" fill="white" stroke="#323232" stroke-width="4" stroke-linecap="round"/>
<path d="M183.896 319.634V278.678H252.5C247.333 299.68 216.524 320.768 183.896 319.634Z" fill="#7E7E7E" fill-opacity="0.45"/>
<path d="M174 231.5C174 243.189 163.45 253 150 253C136.55 253 126 243.189 126 231.5C126 219.811 136.55 210 150 210C163.45 210 174 219.811 174 231.5Z" fill="white" stroke="#323232" stroke-width="4"/>
<path d="M261 231.5C261 243.189 271.55 253 285 253C298.45 253 309 243.189 309 231.5C309 219.811 298.45 210 285 210C271.55 210 261 219.811 261 231.5Z" fill="white" stroke="#323232" stroke-width="4"/>
<path d="M284 221.261C284 243.713 278.042 260.834 266.986 272.337C255.941 283.828 239.532 290 218.03 290C196.526 290 179.842 283.827 168.529 272.321C157.211 260.81 151 243.69 151 221.261C151 198.804 157.232 175.379 168.779 157.629C180.311 139.903 197.009 128 218.03 128C239.043 128 255.472 139.893 266.74 157.612C278.025 175.358 284 198.787 284 221.261Z" fill="white" stroke="#323232" stroke-width="4" stroke-linecap="round"/>
<path d="M218 220C216.029 226.812 215 230.371 215 237.458C217.64 238.72 220.163 239.036 224.5 239" stroke="#323232" stroke-width="4" stroke-linecap="round" stroke-linejoin="round"/>
<path d="M182.768 231.225C184.829 231.225 186.657 230.11 187.953 228.382C189.249 226.655 190.035 224.291 190.035 221.702C190.035 219.112 189.249 216.749 187.953 215.021C186.657 213.294 184.829 212.178 182.768 212.178C180.706 212.178 178.878 213.294 177.582 215.021C176.287 216.749 175.5 219.112 175.5 221.702C175.5 224.291 176.287 226.655 177.582 228.382C178.878 230.11 180.706 231.225 182.768 231.225Z" fill="#323232" stroke="#323232" stroke-linecap="round"/>
<circle cx="185.616" cy="219.487" r="2.5" fill="white" stroke="#323232"/>
<path d="M254.768 231.225C256.829 231.225 258.657 230.11 259.953 228.382C261.249 226.655 262.035 224.291 262.035 221.702C262.035 219.112 261.249 216.749 259.953 215.021C258.657 213.294 256.829 212.178 254.768 212.178C252.706 212.178 250.878 213.294 249.582 215.021C248.287 216.749 247.5 219.112 247.5 221.702C247.5 224.291 248.287 226.655 249.582 228.382C250.878 230.11 252.706 231.225 254.768 231.225Z" fill="#323232" stroke="#323232" stroke-linecap="round"/>
<circle cx="257.616" cy="219.487" r="2" fill="white"/>
<path d="M210 254.5C213 258.167 220.8 263.3 228 254.5" stroke="#323232" stroke-width="4" stroke-linecap="round" stroke-linejoin="round"/>
<g filter="url(#filter0_f_90_57)">
<ellipse cx="178.5" cy="249.5" rx="9.5" ry="5.5" fill="#FC9D80"/>
</g>
<g filter="url(#filter1_f_90_57)">
<ellipse cx="257.5" cy="249.5" rx="9.5" ry="5.5" fill="#FC9D80"/>
</g>
<path d="M232 157C210.149 199.401 192.136 208.762 145 213C135.5 148.5 150.661 134.804 221.5 124C279.144 143.221 280.619 161.613 282 213C247.433 203.149 244.344 188.803 232 157Z" fill="#323232"/>
<path d="M182.637 329.566C198.781 357.54 237.874 355.35 250.064 329.821C250.396 329.127 251.144 328.922 251.623 329.139C278.582 341.357 296.284 354.353 308.373 371.321C320.476 388.308 327.102 409.482 331.512 438.356C331.604 438.958 331.132 439.5 330.538 439.5H100.471C99.8781 439.5 99.4054 438.956 99.5001 438.354C104.264 408.036 112.098 386.611 124.931 369.851C137.765 353.091 155.747 340.803 181.18 329.032C181.637 328.82 182.303 328.988 182.637 329.566Z" fill="white" stroke="#323232" stroke-width="4" stroke-linecap="round" stroke-linejoin="round"/>
<path d="M136 358.178H296" stroke="#323232" stroke-opacity="0.5" stroke-width="4"/>
<path d="M119 379.178H313" stroke="#323232" stroke-opacity="0.5" stroke-width="4"/>
<path d="M109 400.178H322" stroke="#323232" stroke-opacity="0.5" stroke-width="4"/>
<path d="M101 421.178H328" stroke="#323232" stroke-opacity="0.5" stroke-width="4"/>
</g>
<defs>
<filter id="filter0_f_90_57" x="157" y="232" width="43" height="35" filterUnits="userSpaceOnUse" color-interpolation-filters="sRGB">
<feFlood flood-opacity="0" result="BackgroundImageFix"/>
<feBlend mode="normal" in="SourceGraphic" in2="BackgroundImageFix" result="shape"/>
<feGaussianBlur stdDeviation="6" result="effect1_foregroundBlur_90_57"/>
</filter>
<filter id="filter1_f_90_57" x="236" y="232" width="43" height="35" filterUnits="userSpaceOnUse" color-interpolation-filters="sRGB">
<feFlood flood-opacity="0" result="BackgroundImageFix"/>
<feBlend mode="normal" in="SourceGraphic" in2="BackgroundImageFix" result="shape"/>
<feGaussianBlur stdDeviation="6" result="effect1_foregroundBlur_90_57"/>
</filter>
<linearGradient id="paint0_linear_90_57" x1="217.215" y1="162.957" x2="217.215" y2="271.382" gradientUnits="userSpaceOnUse">
<stop stop-color="#921D7F"/>
<stop offset="1" stop-color="#FC9D80"/>
</linearGradient>
<linearGradient id="paint1_linear_90_57" x1="217.215" y1="121.695" x2="217.215" y2="312.689" gradientUnits="userSpaceOnUse">
<stop stop-color="#921D7F"/>
<stop offset="1" stop-color="#FC9D80"/>
</linearGradient>
<linearGradient id="paint2_linear_90_57" x1="217.192" y1="81.8418" x2="217.192" y2="352.633" gradientUnits="userSpaceOnUse">
<stop stop-color="#921D7F"/>
<stop offset="1" stop-color="#FC9D80"/>
</linearGradient>
<linearGradient id="paint3_linear_90_57" x1="217.193" y1="41.0347" x2="217.193" y2="393.35" gradientUnits="userSpaceOnUse">
<stop stop-color="#921D7F"/>
<stop offset="1" stop-color="#FC9D80"/>
</linearGradient>
<linearGradient id="paint4_linear_90_57" x1="217.215" y1="0" x2="217.215" y2="434.43" gradientUnits="userSpaceOnUse">
<stop stop-color="#921D7F"/>
<stop offset="1" stop-color="#FC9D80"/>
</linearGradient>
</defs>
</svg>
